Coordinates
version=1
nRows=14
nColumns=40
inDegrees=yes

Units are S.I. units (second, meters, Newtons, ...)
Angles are in degrees.

endheader
time	pelvis_tilt	pelvis_list	pelvis_rotation	pelvis_tx	pelvis_ty	pelvis_tz	hip_flexion_r	hip_adduction_r	hip_rotation_r	knee_angle_r	knee_angle_r_beta	ankle_angle_r	subtalar_angle_r	mtp_angle_r	hip_flexion_l	hip_adduction_l	hip_rotation_l	knee_angle_l	knee_angle_l_beta	ankle_angle_l	subtalar_angle_l	mtp_angle_l	lumbar_extension	lumbar_bending	lumbar_rotation	arm_flex_r	arm_add_r	arm_rot_r	elbow_flex_r	pro_sup_r	wrist_flex_r	wrist_dev_r	arm_flex_l	arm_add_l	arm_rot_l	elbow_flex_l	pro_sup_l	wrist_flex_l	wrist_dev_l
      4.96500000	     -4.99790648	     -7.54804934	      3.97652265	      1.01426682	      0.91377981	      0.49457114	     -2.70677171	      7.32830966	    -18.22102577	      6.86788781	      6.86788781	     16.76788943	      7.56006037	     -4.85267774	     35.31042100	     -9.19548530	     -3.08010355	     16.24449201	     16.24449201	      6.01853670	     -2.26591760	      9.40128608	     -8.12160793	      7.46255717	      3.78634239	     47.66596924	    -13.87177301	     -1.25951370	     85.01998642	     44.56175543	      0.00000000	      0.00000000	    -18.51617823	     -6.62125268	     17.36695221	     29.15497720	     43.40642007	      0.00000000	      0.00000000
      4.97650000	     -5.05139424	     -7.45359411	      3.97383244	      1.01581473	      0.91184666	      0.49270737	     -3.15846507	      7.06333424	    -17.92998062	      7.44507042	      7.44507042	     17.80350194	      7.19552605	     -3.94490437	     35.12787621	     -8.86703385	     -3.41304220	     16.24967791	     16.24967791	      4.56993842	     -3.43930348	      7.11136932	     -7.90592619	      7.35625485	      3.82067708	     47.81452297	    -13.90581483	     -1.29128568	     87.80904896	     44.53144496	      0.00000000	      0.00000000	    -19.42284442	     -6.70098677	     17.53974264	     29.64228818	     43.48692687	      0.00000000	      0.00000000
      4.98800000	     -5.08838461	     -7.24285774	      3.90875711	      1.01753960	      0.91011530	      0.49075692	     -3.80663108	      6.69528646	    -17.69694787	      7.66649679	      7.66649679	     18.34016146	      7.10149395	     -4.02024920	     35.06850005	     -8.58069266	     -4.04744205	     16.97537315	     16.97537315	      4.04089201	     -4.22438570	      7.04756271	     -7.58117680	      7.10301204	      3.76621671	     48.40647545	    -13.82407660	     -1.35289123	     88.37852972	     44.52052313	      0.00000000	      0.00000000	    -20.09673785	     -6.62835784	     17.60676466	     29.41209331	     43.47382459	      0.00000000	      0.00000000
      4.99950000	     -5.11758834	     -7.06533948	      3.90846913	      1.01922427	      0.90825526	      0.48854318	     -4.10489858	      6.24827926	    -17.41689470	      8.62829411	      8.62829411	     19.39473082	      6.57526918	     -3.28772797	     34.98711197	     -8.14825685	     -3.71030476	     17.77519693	     17.77519693	      2.35949753	     -6.67180734	      5.12887629	     -7.38573796	      6.93475301	      3.60394819	     48.41578238	    -13.56663603	     -1.37879618	     90.86785215	     44.47267457	      0.00000000	      0.00000000	    -20.62375171	     -6.57382465	     17.72403740	     29.43801297	     43.51128438	      0.00000000	      0.00000000
      5.01100000	     -5.05593795	     -6.83127776	      3.82303252	      1.02117134	      0.90679982	      0.48629590	     -4.77743018	      5.78903111	    -17.18801568	      9.04480990	      9.04480990	     19.87626620	      6.48156834	     -3.25152487	     34.96543734	     -7.90328173	     -4.02013758	     19.18947110	     19.18947110	      1.71144290	     -7.87918383	      4.74961525	     -7.18792878	      6.71492252	      3.49938575	     48.68756036	    -13.45126358	     -1.42591240	     91.56457965	     44.45887312	      0.00000000	      0.00000000	    -20.96455660	     -6.53256045	     17.78027346	     29.29423302	     43.50978338	      0.00000000	      0.00000000
      5.02250000	     -5.15291977	     -6.63054578	      3.74639530	      1.02300997	      0.90522008	      0.48384427	     -4.99646022	      5.25987803	    -16.94086759	     10.01281780	     10.01281780	     20.61796060	      6.13124478	     -2.89433210	     35.07292271	     -7.53975338	     -3.63643666	     20.54163627	     20.54163627	      0.56015704	    -10.10400079	      3.77562317	     -6.87753671	      6.54119300	      3.41495266	     48.49284622	    -13.35233267	     -1.50850112	     93.50487640	     44.41759277	      0.00000000	      0.00000000	    -21.18887184	     -6.45944458	     17.85448234	     29.17382633	     43.53177609	      0.00000000	      0.00000000
      5.03400000	     -4.95747456	     -6.38635927	      3.66088897	      1.02506718	      0.90438823	      0.48133283	     -5.64712576	      4.71422674	    -16.71648257	     10.76124919	     10.76124919	     21.01406077	      5.95591089	     -2.86127450	     34.91006463	     -7.27382801	     -3.54547509	     22.13393398	     22.13393398	      0.12759233	    -11.45043006	      3.36887029	     -6.87991003	      6.32919050	      3.41277827	     48.35534953	    -13.34875444	     -1.58197600	     94.35041804	     44.40079082	      0.00000000	      0.00000000	    -21.19159129	     -6.46906770	     17.88361624	     29.06558204	     43.54307470	      0.00000000	      0.00000000
      5.04550000	     -4.89508733	     -6.10695290	      3.52417240	      1.02704296	      0.90371795	      0.47864533	     -5.98009476	      4.04287864	    -16.45469881	     11.82251858	     11.82251858	     21.35124669	      5.66076373	     -2.93263358	     34.82956975	     -6.92708585	     -3.28165896	     23.66341426	     23.66341426	     -0.08309148	    -12.86190964	      3.08549773	     -6.75829698	      6.10068830	      3.37019688	     47.93444762	    -13.33881244	     -1.64910937	     95.49270996	     44.37431741	      0.00000000	      0.00000000	    -21.05926368	     -6.43791514	     17.91114138	     28.92919522	     43.55879675	      0.00000000	      0.00000000
      5.05700000	     -4.85176051	     -5.80833231	      3.37555399	      1.02892754	      0.90343700	      0.47582785	     -6.10767193	      3.28295905	    -16.20351146	     13.20923093	     13.20923093	     21.53012437	      5.24517029	     -3.18791311	     34.69149483	     -6.54149154	     -2.99831257	     25.06746691	     25.06746691	      0.02409380	    -14.08433508	      2.98996957	     -6.63948827	      5.87658442	      3.42891400	     47.26681167	    -13.45760847	     -1.77807493	     96.80250032	     44.34559608	      0.00000000	      0.00000000	    -20.68558586	     -6.40397768	     17.92434262	     28.74767856	     43.58392982	      0.00000000	      0.00000000
      5.06850000	     -4.83448861	     -5.48022573	      3.18881804	      1.03072062	      0.90360641	      0.47293959	     -6.02729648	      2.42966158	    -15.90103619	     14.88906590	     14.88906590	     21.42949959	      4.67835735	     -3.80201086	     34.46765486	     -6.13893416	     -2.83224691	     26.29839531	     26.29839531	      0.55190138	    -14.97108300	      3.24049399	     -6.52955672	      5.58459348	      3.66564793	     46.12403945	    -13.80526454	     -2.04825879	     98.34082477	     44.31830662	      0.00000000	      0.00000000	    -20.03229481	     -6.44194476	     17.92142977	     28.38222341	     43.62612381	      0.00000000	      0.00000000
      5.08000000	     -4.72810158	     -5.18171663	      3.02431851	      1.03248618	      0.90434012	      0.46992632	     -6.02886348	      1.62525150	    -15.54019499	     16.48250353	     16.48250353	     20.55239689	      3.81324415	     -5.90436196	     34.15112798	     -5.76578059	     -2.69679976	     27.56785804	     27.56785804	      1.96719694	    -15.27049684	      4.80070826	     -6.56424464	      5.36148339	      4.48351974	     44.36447612	    -14.65059209	     -2.95799474	    100.66340578	     44.32653869	      0.00000000	      0.00000000	    -18.68647753	     -6.40414827	     18.03983724	     27.23424166	     43.73016113	      0.00000000	      0.00000000
      5.09150000	     -4.62218346	     -4.92006586	      2.81169398	      1.03407052	      0.90539819	      0.46691384	     -5.65080666	      0.73201013	    -15.27412144	     18.79683853	     18.79683853	     20.02982075	      3.07507298	     -6.67988828	     33.62320354	     -5.46788446	     -2.75976530	     28.40314287	     28.40314287	      2.84193300	    -15.54973886	      4.59178938	     -6.56125039	      5.20098918	      4.28578808	     43.43825320	    -14.50309610	     -2.85307950	    100.80284485	     44.32466085	      0.00000000	      0.00000000	    -18.06539181	     -6.36984473	     18.03445059	     27.24473631	     43.75671772	      0.00000000	      0.00000000
      5.10300000	     -4.53695313	     -4.65905115	      2.58452975	      1.03553160	      0.90680415	      0.46391337	     -5.01621927	     -0.19820240	    -14.93332771	     21.47156820	     21.47156820	     19.17496999	      2.06141382	     -7.71446382	     32.97318278	     -5.16812853	     -2.91767787	     28.96668202	     28.96668202	      3.79446159	    -15.67792628	      4.46974234	     -6.53857504	      5.03880886	      4.16044766	     42.15424040	    -14.46910656	     -2.76658443	    100.97484919	     44.32021562	      0.00000000	      0.00000000	    -17.27989364	     -6.38595527	     17.96517447	     27.22804323	     43.79570296	      0.00000000	      0.00000000
      5.11450000	     -4.57815932	     -4.46316850	      2.36371297	      1.03665315	      0.90832403	      0.46097380	     -3.95424041	     -1.07585401	    -14.49584985	     24.53177709	     24.53177709	     17.80167739	      0.54710029	     -9.36014596	     32.33221136	     -4.91910460	     -3.10601093	     29.23558256	     29.23558256	      4.81602424	    -15.59588365	      4.50165630	     -6.42758741	      4.93816953	      4.16707141	     40.57292587	    -14.61988418	     -2.78667305	    101.26778451	     44.31838209	      0.00000000	      0.00000000	    -16.25231743	     -6.37438466	     17.80082100	     27.11917939	     43.86182052	      0.00000000	      0.00000000
